<mxfile host="app.diagrams.net" agent="Mozilla/5.0 (Windows NT 10.0; Win64; x64) AppleWebKit/537.36 (KHTML, like Gecko) Chrome/129.0.0.0 Safari/537.36" version="24.7.16">
  <diagram name="第 1 页" id="q-_Raw-z90Bs7am5frY4">
    <mxGraphModel dx="1036" dy="1685" grid="1" gridSize="10" guides="1" tooltips="1" connect="1" arrows="1" fold="1" page="1" pageScale="1" pageWidth="827" pageHeight="1169" math="0" shadow="0">
      <root>
        <mxCell id="0" />
        <mxCell id="1" parent="0" />
        <mxCell id="u0EzcVp0Kdu_T9_GTE4Y-3" value="" style="edgeStyle=orthogonalEdgeStyle;rounded=0;orthogonalLoop=1;jettySize=auto;html=1;" edge="1" parent="1" source="u0EzcVp0Kdu_T9_GTE4Y-1" target="u0EzcVp0Kdu_T9_GTE4Y-2">
          <mxGeometry relative="1" as="geometry" />
        </mxCell>
        <mxCell id="u0EzcVp0Kdu_T9_GTE4Y-4" value="" style="edgeStyle=orthogonalEdgeStyle;rounded=0;orthogonalLoop=1;jettySize=auto;html=1;" edge="1" parent="1" source="u0EzcVp0Kdu_T9_GTE4Y-1" target="u0EzcVp0Kdu_T9_GTE4Y-2">
          <mxGeometry relative="1" as="geometry" />
        </mxCell>
        <mxCell id="u0EzcVp0Kdu_T9_GTE4Y-5" value="" style="edgeStyle=orthogonalEdgeStyle;rounded=0;orthogonalLoop=1;jettySize=auto;html=1;" edge="1" parent="1" source="u0EzcVp0Kdu_T9_GTE4Y-1" target="u0EzcVp0Kdu_T9_GTE4Y-2">
          <mxGeometry relative="1" as="geometry" />
        </mxCell>
        <mxCell id="u0EzcVp0Kdu_T9_GTE4Y-7" value="" style="edgeStyle=orthogonalEdgeStyle;rounded=0;orthogonalLoop=1;jettySize=auto;html=1;" edge="1" parent="1" source="u0EzcVp0Kdu_T9_GTE4Y-1" target="u0EzcVp0Kdu_T9_GTE4Y-6">
          <mxGeometry relative="1" as="geometry" />
        </mxCell>
        <mxCell id="u0EzcVp0Kdu_T9_GTE4Y-9" value="" style="edgeStyle=orthogonalEdgeStyle;rounded=0;orthogonalLoop=1;jettySize=auto;html=1;" edge="1" parent="1" source="u0EzcVp0Kdu_T9_GTE4Y-1" target="u0EzcVp0Kdu_T9_GTE4Y-8">
          <mxGeometry relative="1" as="geometry" />
        </mxCell>
        <mxCell id="u0EzcVp0Kdu_T9_GTE4Y-1" value="人工智能三教父" style="rounded=1;whiteSpace=wrap;html=1;" vertex="1" parent="1">
          <mxGeometry x="280" y="240" width="120" height="60" as="geometry" />
        </mxCell>
        <mxCell id="u0EzcVp0Kdu_T9_GTE4Y-19" value="" style="edgeStyle=orthogonalEdgeStyle;rounded=0;orthogonalLoop=1;jettySize=auto;html=1;" edge="1" parent="1" source="u0EzcVp0Kdu_T9_GTE4Y-2" target="u0EzcVp0Kdu_T9_GTE4Y-18">
          <mxGeometry relative="1" as="geometry" />
        </mxCell>
        <mxCell id="u0EzcVp0Kdu_T9_GTE4Y-20" value="祖师爷" style="edgeLabel;html=1;align=center;verticalAlign=middle;resizable=0;points=[];" vertex="1" connectable="0" parent="u0EzcVp0Kdu_T9_GTE4Y-19">
          <mxGeometry x="-0.025" y="-3" relative="1" as="geometry">
            <mxPoint as="offset" />
          </mxGeometry>
        </mxCell>
        <mxCell id="u0EzcVp0Kdu_T9_GTE4Y-2" value="&lt;span style=&quot;box-sizing: border-box; outline: 0px; font-weight: 700; font-synthesis-style: auto; overflow-wrap: break-word; color: rgb(77, 77, 77); font-family: -apple-system, &amp;quot;SF UI Text&amp;quot;, Arial, &amp;quot;PingFang SC&amp;quot;, &amp;quot;Hiragino Sans GB&amp;quot;, &amp;quot;Microsoft YaHei&amp;quot;, &amp;quot;WenQuanYi Micro Hei&amp;quot;, sans-serif, SimHei, SimSun; font-size: 16px; text-align: start; background-color: rgb(255, 255, 255);&quot;&gt;Yann LeCun&lt;/span&gt;&lt;span style=&quot;color: rgb(77, 77, 77); font-family: -apple-system, &amp;quot;SF UI Text&amp;quot;, Arial, &amp;quot;PingFang SC&amp;quot;, &amp;quot;Hiragino Sans GB&amp;quot;, &amp;quot;Microsoft YaHei&amp;quot;, &amp;quot;WenQuanYi Micro Hei&amp;quot;, sans-serif, SimHei, SimSun; font-size: 16px; text-align: start; background-color: rgb(255, 255, 255);&quot;&gt;&amp;nbsp;&lt;/span&gt;" style="whiteSpace=wrap;html=1;rounded=1;" vertex="1" parent="1">
          <mxGeometry x="280" y="100" width="120" height="60" as="geometry" />
        </mxCell>
        <mxCell id="u0EzcVp0Kdu_T9_GTE4Y-6" value="&lt;span style=&quot;box-sizing: border-box; outline: 0px; font-weight: 700; --el-button-hover-bg-color: #6D5FFD; --el-button-hover-border-color: #6D5FFD; --el-button-active-bg-color: #6D5FFD; --el-button-active-border-color: #6D5FFD; font-synthesis-style: auto; overflow-wrap: break-word; color: rgb(77, 77, 77); font-family: -apple-system, &amp;quot;SF UI Text&amp;quot;, Arial, &amp;quot;PingFang SC&amp;quot;, &amp;quot;Hiragino Sans GB&amp;quot;, &amp;quot;Microsoft YaHei&amp;quot;, &amp;quot;WenQuanYi Micro Hei&amp;quot;, sans-serif, SimHei, SimSun; font-size: 16px; text-align: start; background-color: rgb(255, 255, 255);&quot;&gt;Bengio&amp;nbsp;&lt;/span&gt;" style="rounded=1;whiteSpace=wrap;html=1;" vertex="1" parent="1">
          <mxGeometry x="450" y="100" width="120" height="60" as="geometry" />
        </mxCell>
        <mxCell id="u0EzcVp0Kdu_T9_GTE4Y-8" value="&lt;span style=&quot;color: rgb(77, 77, 77); font-family: -apple-system, &amp;quot;SF UI Text&amp;quot;, Arial, &amp;quot;PingFang SC&amp;quot;, &amp;quot;Hiragino Sans GB&amp;quot;, &amp;quot;Microsoft YaHei&amp;quot;, &amp;quot;WenQuanYi Micro Hei&amp;quot;, sans-serif, SimHei, SimSun; font-size: 16px; text-align: start; background-color: rgb(255, 255, 255);&quot;&gt;Geoffery Hinton&lt;/span&gt;" style="rounded=1;whiteSpace=wrap;html=1;" vertex="1" parent="1">
          <mxGeometry x="110" y="100" width="120" height="60" as="geometry" />
        </mxCell>
        <mxCell id="u0EzcVp0Kdu_T9_GTE4Y-18" value="&lt;div style=&quot;text-align: start;&quot;&gt;&lt;font face=&quot;-apple-system, SF UI Text, Arial, PingFang SC, Hiragino Sans GB, Microsoft YaHei, WenQuanYi Micro Hei, sans-serif, SimHei, SimSun&quot; color=&quot;#4d4d4d&quot;&gt;&lt;span style=&quot;font-size: 16px; background-color: rgb(255, 255, 255);&quot;&gt;&lt;b&gt;阿兰图灵&lt;/b&gt;&lt;/span&gt;&lt;/font&gt;&lt;/div&gt;" style="whiteSpace=wrap;html=1;rounded=1;" vertex="1" parent="1">
          <mxGeometry x="280" y="-40" width="120" height="60" as="geometry" />
        </mxCell>
      </root>
    </mxGraphModel>
  </diagram>
</mxfile>
